<svg xmlns="http://www.w3.org/2000/svg" viewBox="0 0 1152 648">
  <title>maps_narrative</title>
  <rect x="49.49" y="58.31" width="321.32" height="128.83" style="fill: #010101;opacity: 0.43"/>
  <text transform="translate(63.83 83.46)" style="font-size: 12px;fill: #fff;font-family: Roboto-Regular, Roboto"><tspan style="letter-spacing: -0.00634765625em">P</tspan><tspan x="7.49" y="0">eople disembark after arriving </tspan><tspan x="169.4" y="0" style="letter-spacing: -0.00537109375em">b</tspan><tspan x="176.06" y="0">y </tspan><tspan x="184.71" y="0" style="letter-spacing: -0.01953125em">r</tspan><tspan x="188.54" y="0">aft f</tspan><tspan x="210.29" y="0" style="letter-spacing: -0.009765625em">r</tspan><tspan x="214.23" y="0">om </tspan><tspan x="0" y="14.4">Guatemala </tspan><tspan x="61.05" y="14.4" style="letter-spacing: -0.009765625em">t</tspan><tspan x="64.85" y="14.4">o Ciudad Hidalgo, Mexico, </tspan><tspan x="205.76" y="14.4" style="letter-spacing: -0.01513671875em">W</tspan><tspan x="216.22" y="14.4">ednesd</tspan><tspan x="255.28" y="14.4" style="letter-spacing: -0.00732421875em">a</tspan><tspan x="261.72" y="14.4" style="letter-spacing: -0.05224609375em">y</tspan><tspan x="266.77" y="14.4">, </tspan><tspan x="0" y="28.8">June 12, 2019. Rafts often car</tspan><tspan x="159.98" y="28.8" style="letter-spacing: 0.0087890625em">r</tspan><tspan x="164.15" y="28.8">y passengers and </tspan><tspan x="0" y="43.2">supplies ac</tspan><tspan x="60.42" y="43.2" style="letter-spacing: -0.009765625em">r</tspan><tspan x="64.36" y="43.2">oss the Suchiate Ri</tspan><tspan x="166.02" y="43.2" style="letter-spacing: -0.00634765625em">v</tspan><tspan x="171.76" y="43.2">er between</tspan><tspan x="230.51" y="43.2" style="letter-spacing: -0.01953125em"> </tspan><tspan x="233.24" y="43.2" style="letter-spacing: -0.04833984375em">T</tspan><tspan x="239.82" y="43.2">ecún </tspan><tspan x="0" y="57.6">Umán, Guatemala, and Ciudad Hidalgo, Mexico. </tspan><tspan x="0" y="72">Mexica</tspan><tspan x="38.5" y="72" style="letter-spacing: -0.05078125em">n</tspan><tspan x="44.51" y="72" style="letter-spacing: -0.0390625em">&apos;</tspan><tspan x="46.14" y="72">s often t</tspan><tspan x="90.09" y="72" style="letter-spacing: -0.01953125em">r</tspan><tspan x="93.92" y="72" style="letter-spacing: -0.00732421875em">a</tspan><tspan x="100.36" y="72" style="letter-spacing: -0.00634765625em">v</tspan><tspan x="106.1" y="72">el ac</tspan><tspan x="131.15" y="72" style="letter-spacing: -0.009765625em">r</tspan><tspan x="135.09" y="72">oss the ri</tspan><tspan x="184.11" y="72" style="letter-spacing: -0.00634765625em">v</tspan><tspan x="189.84" y="72">er </tspan><tspan x="203.23" y="72" style="letter-spacing: -0.009765625em">t</tspan><tspan x="207.04" y="72">o sell Mexican </tspan><tspan x="0" y="86.4">goods.</tspan></text>
</svg>
