<svg xmlns="http://www.w3.org/2000/svg" viewBox="0 0 1152 648">
  <title>maps_narrative</title>
  <rect x="49.49" y="58.31" width="321.32" height="141.64" style="fill: #010101;opacity: 0.43"/>
  <text transform="translate(63.83 83.46)" style="font-size: 12px;fill: #fff;font-family: Roboto-Regular, Roboto">In <tspan x="12.86" y="0" style="letter-spacing: -0.00927734375em">r</tspan><tspan x="16.8" y="0">esponse </tspan><tspan x="65.06" y="0" style="letter-spacing: -0.009765625em">t</tspan><tspan x="68.87" y="0">o the inc</tspan><tspan x="114.35" y="0" style="letter-spacing: -0.00927734375em">r</tspan><tspan x="118.3" y="0">eased mig</tspan><tspan x="173.63" y="0" style="letter-spacing: -0.01953125em">r</tspan><tspan x="177.46" y="0">ation th</tspan><tspan x="217.78" y="0" style="letter-spacing: -0.009765625em">r</tspan><tspan x="221.73" y="0">ough the </tspan><tspan x="0" y="14.4">Darién in 2019, the </tspan><tspan x="101.96" y="14.4" style="letter-spacing: -0.00537109375em">P</tspan><tspan x="109.47" y="14.4">anamanian G</tspan><tspan x="180.01" y="14.4" style="letter-spacing: -0.00732421875em">o</tspan><tspan x="186.77" y="14.4" style="letter-spacing: -0.00634765625em">v</tspan><tspan x="192.5" y="14.4">ernment began </tspan><tspan x="0" y="28.8">p</tspan><tspan x="6.73" y="28.8" style="letter-spacing: -0.009765625em">r</tspan><tspan x="10.68" y="28.8" style="letter-spacing: -0.00732421875em">o</tspan><tspan x="17.43" y="28.8">viding mig</tspan><tspan x="72.32" y="28.8" style="letter-spacing: -0.01953125em">r</tspan><tspan x="76.15" y="28.8">ants with tempo</tspan><tspan x="162.18" y="28.8" style="letter-spacing: -0.01953125em">r</tspan><tspan x="166" y="28.8">a</tspan><tspan x="172.53" y="28.8" style="letter-spacing: 0.0087890625em">r</tspan><tspan x="176.7" y="28.8">y shelte</tspan><tspan x="217.69" y="28.8" style="letter-spacing: -0.06005859375em">r</tspan><tspan x="221.03" y="28.8">, and </tspan><tspan x="0" y="43.2">o</tspan><tspan x="6.84" y="43.2" style="letter-spacing: -0.00927734375em">r</tspan><tspan x="10.79" y="43.2">gani</tspan><tspan x="33.59" y="43.2" style="letter-spacing: -0.0078125em">z</tspan><tspan x="39.44" y="43.2">ed boats and buses for t</tspan><tspan x="168.62" y="43.2" style="letter-spacing: -0.01953125em">r</tspan><tspan x="172.44" y="43.2">ansit as pa</tspan><tspan x="230.53" y="43.2" style="letter-spacing: 0.0244140625em">r</tspan><tspan x="234.88" y="43.2">t of a </tspan><tspan x="0" y="57.6" style="letter-spacing: -0.02880859375em">&quot;</tspan><tspan x="3.49" y="57.6">cont</tspan><tspan x="27.16" y="57.6" style="letter-spacing: -0.009765625em">r</tspan><tspan x="31.1" y="57.6">olled flow ope</tspan><tspan x="105.71" y="57.6" style="letter-spacing: -0.01953125em">r</tspan><tspan x="109.54" y="57.6">ation</tspan><tspan x="136.36" y="57.6" style="letter-spacing: -0.0830078125em">.</tspan><tspan x="138.52" y="57.6">&quot; Mig</tspan><tspan x="165.45" y="57.6" style="letter-spacing: -0.01953125em">r</tspan><tspan x="169.28" y="57.6">ants pictu</tspan><tspan x="221.97" y="57.6" style="letter-spacing: -0.00927734375em">r</tspan><tspan x="225.91" y="57.6">ed he</tspan><tspan x="254.98" y="57.6" style="letter-spacing: -0.00927734375em">r</tspan><tspan x="258.93" y="57.6">e wait </tspan><tspan x="0" y="72">at San Vincente camp for a bus </tspan><tspan x="169.41" y="72" style="letter-spacing: -0.009765625em">t</tspan><tspan x="173.21" y="72">o ta</tspan><tspan x="193.47" y="72" style="letter-spacing: -0.009765625em">k</tspan><tspan x="199.44" y="72">e them </tspan><tspan x="239.14" y="72" style="letter-spacing: -0.009765625em">t</tspan><tspan x="242.94" y="72">o the </tspan><tspan x="0" y="86.4">bo</tspan><tspan x="13.58" y="86.4" style="letter-spacing: -0.00927734375em">r</tspan><tspan x="17.53" y="86.4">der of Costa Rica.</tspan><tspan x="112.19" y="86.4" style="letter-spacing: -0.01953125em"> </tspan><tspan x="114.93" y="86.4">Th</tspan><tspan x="128.7" y="86.4" style="letter-spacing: -0.00634765625em">e</tspan><tspan x="134.98" y="86.4">y a</tspan><tspan x="150.15" y="86.4" style="letter-spacing: -0.00927734375em">r</tspan><tspan x="154.1" y="86.4">e holding food package </tspan><tspan x="0" y="100.8">gi</tspan><tspan x="9.64" y="100.8" style="letter-spacing: -0.00634765625em">v</tspan><tspan x="15.38" y="100.8">en </tspan><tspan x="31.33" y="100.8" style="letter-spacing: -0.009765625em">t</tspan><tspan x="35.13" y="100.8">o them befo</tspan><tspan x="99.42" y="100.8" style="letter-spacing: -0.00927734375em">r</tspan><tspan x="103.37" y="100.8">e the bus.</tspan></text>
</svg>
