<?xml version="1.0" encoding="utf-8" standalone="no"?>
<!DOCTYPE svg PUBLIC "-//W3C//DTD SVG 1.1//EN" "http://www.w3.org/Graphics/SVG/1.1/DTD/svg11.dtd">
<svg version="1.1" width="384pt" height="216pt" viewBox="0 0 384 216" overflow="visible" xmlns="http://www.w3.org/2000/svg">
  <path d="M320.8548,234.7139 C305.5381,232.9441 305.1207,219.2707 302.8665,207.2743 C300.6122,195.2779 296.5212,184.9585 296.7617,172.0381 C297.0023,159.1177 301.5745,143.5962 295.8956,136.5272 C290.2168,129.4581 274.287,130.8414 260.7141,131.145 C247.1412,131.4486 235.9251,130.6726 224.4282,127.9604 C212.9312,125.2483 201.1534,120.6002 190.6569,114.3799 C180.1604,108.1597 170.9452,100.3674 161.1824,92.80684 C151.4195,85.24628 141.1091,77.91747 129.7838,74.25954 C118.4585,70.60161 106.1183,70.61456 94.20764,68.68138 C82.29701,66.7482 70.81596,62.86888 59.65835,65.44296 C48.50074,68.01705 37.6666,77.04454 32.17983,88.65039 C26.69306,100.2562 26.55368,114.4405 10.84548,114.5127" stroke="#000000" stroke-width="0.24" fill="none" />
  <path d="M308.6425,241.7133 C293.3257,239.9435 292.9084,226.2701 290.6541,214.2737 C288.3999,202.2773 284.3088,191.9579 284.5494,179.0374 C284.7899,166.117 289.3621,150.5956 283.6833,143.5265 C278.0045,136.4574 262.0747,137.8407 248.5018,138.1443 C234.9288,138.448 223.7128,137.6719 212.2159,134.9598 C200.7189,132.2477 188.9411,127.5995 178.4446,121.3793 C167.9481,115.159 158.7328,107.3667 148.97,99.80617 C139.2072,92.24561 128.8968,84.91679 117.5715,81.25887 C106.2462,77.60093 93.90595,77.61389 81.99532,75.68071 C70.08469,73.74753 58.60363,69.86821 47.44602,72.44229 C36.28842,75.01638 25.45427,84.04387 19.9675,95.64972 C14.48074,107.2556 14.34136,121.4398 -1.366846,121.512" stroke="#000000" stroke-width="0.24" fill="none" />
</svg>