<?xml version="1.0" encoding="utf-8" standalone="no"?>
<!DOCTYPE svg PUBLIC "-//W3C//DTD SVG 1.1//EN" "http://www.w3.org/Graphics/SVG/1.1/DTD/svg11.dtd">
<svg version="1.1" width="384pt" height="216pt" viewBox="0 0 384 216" overflow="visible" xmlns="http://www.w3.org/2000/svg">
  <path class="curves" stroke-dasharray="5 5" d="M345.2154,1.188551 C343.9836,14.54537 330.9688,14.55847 321.5116,20.04012 C312.0543,25.52177 306.1546,36.47197 301.4617,43.61624 C296.7688,50.76051 293.2828,54.09883 290.8406,61.69786 C288.3985,69.29688 287.0002,81.1566 281.9206,90.57162 C276.8409,99.98663 268.08,106.9569 258.0541,109.7937 C248.0283,112.6305 236.7375,111.3338 225.9,109.4763 C215.0625,107.6189 204.6783,105.2007 194.8861,101.0647 C185.094,96.92861 175.8939,91.07463 167.2869,84.65356 C158.6799,78.23249 150.666,71.24433 141.3423,65.54507 C132.0185,59.84582 121.3849,55.43548 112.7544,50.73893 C104.1238,46.04237 97.49645,41.0596 98.23087,32.15883 C98.96529,23.25806 107.0615,10.43929 99.47687,1.188314" stroke="#000000" stroke-width="0.24" fill="none" />
  <path class="curves" stroke-dasharray="5 5" d="M343.9258,3.221327 C342.694,16.57815 329.6792,16.59124 320.222,22.0729 C310.7648,27.55454 304.8651,38.50475 300.1722,45.64902 C295.4793,52.79328 291.9932,56.13161 289.5511,63.73063 C287.1089,71.32966 285.7106,83.18938 280.631,92.60439 C275.5514,102.0194 266.7904,108.9897 256.7646,111.8265 C246.7387,114.6633 235.448,113.3666 224.6105,111.5091 C213.773,109.6517 203.3887,107.2335 193.5966,103.0975 C183.8044,98.96139 174.6043,93.10741 165.9974,86.68634 C157.3904,80.26527 149.3765,73.27711 140.0527,67.57785 C130.7289,61.8786 120.0953,57.46825 111.4648,52.7717 C102.8343,48.07515 96.20689,43.09238 96.94131,34.19161 C97.67574,25.29084 105.772,12.47206 98.18731,3.22109" stroke="#000000" stroke-width="0.24" fill="none" />
  <path class="curves" stroke-dasharray="5 5" d="M344.409,3.002468 C343.1772,16.35929 330.1624,16.37239 320.7052,21.85404 C311.248,27.33569 305.3482,38.28589 300.6554,45.43016 C295.9625,52.57442 292.4764,55.91275 290.0342,63.51177 C287.5921,71.11079 286.1938,82.97052 281.1142,92.38553 C276.0346,101.8005 267.2736,108.7709 257.2478,111.6076 C247.2219,114.4444 235.9312,113.1477 225.0937,111.2903 C214.2562,109.4328 203.8719,107.0147 194.0798,102.8786 C184.2876,98.74252 175.0875,92.88855 166.4805,86.46748 C157.8736,80.04641 149.8597,73.05825 140.5359,67.35899 C131.2121,61.65974 120.5785,57.2494 111.948,52.55284 C103.3175,47.85629 96.69008,42.87352 97.42451,33.97275 C98.15893,25.07198 106.2552,12.2532 98.6705,3.002232" stroke="#000000" stroke-width="0.24" fill="none" />
  <path class="curves" stroke-dasharray="5 5" d="M340.6655,7.282634 C336.713,20.7707 324.6417,25.16826 312.5928,30.63535 C300.5439,36.10245 288.5174,42.63908 285.168,52.94221 C281.8186,63.24534 287.1462,77.31498 284.1055,89.33965 C281.0649,101.3643 269.656,111.344 257.4197,115.4635 C245.1834,119.5829 232.1196,117.8421 219.4082,115.3342 C206.6967,112.8264 194.3376,109.5516 183.1355,103.9335 C171.9333,98.3154 161.888,90.35397 151.6848,82.43673 C141.4817,74.51949 131.1205,66.64643 119.5026,62.07747 C107.8847,57.50851 95.01003,56.24364 82.83427,53.66443 C70.65853,51.08522 59.18173,47.19165 47.49774,49.70701 C35.81375,52.22237 23.92258,61.14665 17.97721,73.02858 C12.03183,84.91051 12.03226,99.75009 -4.306978,99.88113" stroke="#000000" stroke-width="0.24" fill="none" />
  <path class="curves" stroke-dasharray="5 5" d="M352.8658,-5.797878 C348.9133,7.690191 336.842,12.08775 324.7932,17.55484 C312.7443,23.02194 300.7178,29.55857 297.3683,39.8617 C294.0189,50.16483 299.3465,64.23447 296.3059,76.25914 C293.2653,88.28381 281.8564,98.26352 269.6201,102.3829 C257.3837,106.5024 244.32,104.7616 231.6085,102.2537 C218.8971,99.74592 206.538,96.47112 195.3358,90.853 C184.1336,85.23489 174.0884,77.27346 163.8852,69.35622 C153.682,61.43898 143.3209,53.56592 131.703,48.99696 C120.0851,44.428 107.2104,43.16314 95.03464,40.58392 C82.85889,38.00471 71.38209,34.11115 59.6981,36.6265 C48.01411,39.14186 36.12294,48.06614 30.17757,59.94807 C24.23219,71.82999 24.23263,86.66958 7.893384,86.80062" stroke="#000000" stroke-width="0.24" fill="none" />
  <path class="curves" stroke-dasharray="5 5" d="M345.4277,1.895964 C341.4752,15.38403 329.4039,19.78159 317.355,25.24868 C305.3062,30.71578 293.2797,37.25241 289.9302,47.55554 C286.5808,57.85867 291.9084,71.92831 288.8678,83.95298 C285.8271,95.97765 274.4182,105.9574 262.1819,110.0768 C249.9456,114.1962 236.8818,112.4554 224.1704,109.9476 C211.459,107.4398 199.0999,104.165 187.8977,98.54684 C176.6955,92.92873 166.6503,84.9673 156.4471,77.05006 C146.2439,69.13282 135.8828,61.25976 124.2649,56.6908 C112.647,52.12184 99.77227,50.85698 87.59653,48.27776 C75.42078,45.69855 63.94397,41.80499 52.25999,44.32034 C40.576,46.8357 28.68482,55.75998 22.73945,67.64191 C16.79408,79.52383 16.79451,94.36342 0.4552685,94.49447" stroke="#000000" stroke-width="0.24" fill="none" />
  <path class="curves" stroke-dasharray="5 5" d="M349.8109,12.81191 C345.8584,26.29998 333.7871,30.69754 321.7382,36.16463 C309.6894,41.63173 297.6629,48.16835 294.3134,58.47149 C290.964,68.77462 296.2916,82.84425 293.251,94.86893 C290.2103,106.8936 278.8015,116.8733 266.5651,120.9927 C254.3288,125.1122 241.265,123.3713 228.5536,120.8635 C215.8422,118.3557 203.4831,115.0809 192.2809,109.4628 C181.0787,103.8447 171.0335,95.88325 160.8303,87.96601 C150.6271,80.04877 140.266,72.17571 128.6481,67.60675 C117.0302,63.03779 104.1555,61.77292 91.97973,59.19371 C79.80398,56.6145 68.32718,52.72093 56.64319,55.23629 C44.9592,57.75165 33.06803,66.67593 27.12265,78.55785 C21.17728,90.43979 21.17771,105.2794 4.838471,105.4104" stroke="#000000" stroke-width="0.24" fill="none" />
  <path class="curves" stroke-dasharray="5 5" d="M342.6432,-0.5075555 C338.6907,12.98051 326.6194,17.37807 314.5705,22.84517 C302.5216,28.31226 290.4952,34.84889 287.1457,45.15202 C283.7963,55.45515 289.1239,69.52479 286.0833,81.54946 C283.0426,93.57413 271.6338,103.5538 259.3974,107.6733 C247.1611,111.7927 234.0973,110.0519 221.3859,107.5441 C208.6745,105.0362 196.3154,101.7614 185.1132,96.14332 C173.911,90.52521 163.8658,82.56378 153.6626,74.64655 C143.4594,66.7293 133.0983,58.85624 121.4804,54.28728 C109.8625,49.71832 96.98776,48.45346 84.81201,45.87424 C72.63627,43.29503 61.15947,39.40147 49.47548,41.91682 C37.79149,44.43218 25.90031,53.35646 19.95494,65.23839 C14.00957,77.12032 14.01,91.9599 -2.329241,92.09094" stroke="#000000" stroke-width="0.24" fill="none" />
  <path class="curves" stroke-dasharray="5 5" d="M349.2717,-1.514034 C345.3192,11.97404 333.2479,16.37159 321.199,21.83869 C309.1501,27.30578 297.1237,33.84241 293.7742,44.14554 C290.4248,54.44867 295.7524,68.51831 292.7118,80.54298 C289.6711,92.56765 278.2622,102.5474 266.0259,106.6668 C253.7896,110.7862 240.7258,109.0454 228.0144,106.5376 C215.3029,104.0298 202.9438,100.755 191.7417,95.13684 C180.5395,89.51873 170.4942,81.5573 160.2911,73.64006 C150.0879,65.72282 139.7268,57.84976 128.1088,53.2808 C116.4909,48.71184 103.6162,47.44698 91.4405,44.86776 C79.26475,42.28855 67.78795,38.39499 56.10396,40.91034 C44.41997,43.4257 32.5288,52.34998 26.58343,64.23191 C20.63805,76.11384 20.63848,90.95342 4.299242,91.08447" stroke="#000000" stroke-width="0.24" fill="none" />
  <path class="curves" stroke-dasharray="5 5" d="M341.2716,-2.090043 C337.3191,11.39803 325.2478,15.79558 313.1989,21.26268 C301.15,26.72977 289.1235,33.2664 285.7741,43.56953 C282.4247,53.87267 287.7523,67.9423 284.7116,79.96697 C281.671,91.99165 270.2621,101.9714 258.0258,106.0908 C245.7895,110.2102 232.7257,108.4694 220.0143,105.9616 C207.3028,103.4538 194.9437,100.1789 183.7415,94.56084 C172.5394,88.94272 162.4941,80.98129 152.2909,73.06406 C142.0878,65.14681 131.7266,57.27375 120.1087,52.7048 C108.4908,48.13583 95.61613,46.87097 83.44038,44.29176 C71.26463,41.71254 59.78783,37.81898 48.10384,40.33434 C36.41985,42.84969 24.52868,51.77397 18.58331,63.6559 C12.63793,75.53783 12.63836,90.37741 -3.700879,90.50846" stroke="#000000" stroke-width="0.24" fill="none" />
  <path class="curves" stroke-dasharray="5 5" d="M346.6796,2.670041 C342.7271,16.15811 330.6558,20.55567 318.6069,26.02276 C306.558,31.48985 294.5316,38.02649 291.1821,48.32962 C287.8327,58.63275 293.1603,72.70238 290.1197,84.72706 C287.079,96.75172 275.6701,106.7314 263.4338,110.8509 C251.1975,114.9703 238.1337,113.2295 225.4223,110.7217 C212.7109,108.2138 200.3517,104.939 189.1496,99.32092 C177.9474,93.7028 167.9021,85.74138 157.699,77.82413 C147.4958,69.9069 137.1347,62.03384 125.5168,57.46488 C113.8988,52.89592 101.0242,51.63105 88.8484,49.05184 C76.67266,46.47263 65.19585,42.57906 53.51187,45.09442 C41.82788,47.60978 29.93671,56.53405 23.99134,68.41599 C18.04596,80.29791 18.04639,95.1375 1.707152,95.26854" stroke="#000000" stroke-width="0.24" fill="none" />
  <path class="curves" stroke-dasharray="5 5" d="M345.5629,1.998326 C341.6104,15.4864 329.5391,19.88395 317.4902,25.35105 C305.4413,30.81814 293.4149,37.35477 290.0654,47.6579 C286.716,57.96103 292.0436,72.03067 289.003,84.05534 C285.9623,96.08001 274.5535,106.0597 262.3171,110.1792 C250.0808,114.2986 237.017,112.5578 224.3056,110.0499 C211.5942,107.5421 199.2351,104.2673 188.0329,98.6492 C176.8307,93.03109 166.7855,85.06966 156.5823,77.15242 C146.3791,69.23518 136.018,61.36213 124.4001,56.79316 C112.7822,52.2242 99.90746,50.95934 87.73172,48.38012 C75.55597,45.80091 64.07917,41.90735 52.39518,44.42271 C40.71119,46.93806 28.82002,55.86234 22.87465,67.74427 C16.92927,79.6262 16.9297,94.46578 0.5904623,94.59682" stroke="#000000" stroke-width="0.24" fill="none" />
  <path class="curves" stroke-dasharray="5 5" d="M346.5039,2.403899 C342.5514,15.89197 330.4801,20.28953 318.4312,25.75662 C306.3823,31.22371 294.3558,37.76034 291.0064,48.06347 C287.657,58.36661 292.9846,72.43624 289.9439,84.46091 C286.9033,96.48559 275.4944,106.4653 263.2581,110.5847 C251.0218,114.7042 237.958,112.9633 225.2466,110.4555 C212.5351,107.9477 200.176,104.6729 188.9738,99.05478 C177.7717,93.43666 167.7264,85.47523 157.5232,77.558 C147.3201,69.64075 136.9589,61.7677 125.341,57.19873 C113.7231,52.62978 100.8484,51.36491 88.67268,48.7857 C76.49693,46.20648 65.02013,42.31292 53.33614,44.82828 C41.65216,47.34364 29.76098,56.26791 23.81561,68.14984 C17.87024,80.03177 17.87067,94.87135 1.531428,95.0024" stroke="#000000" stroke-width="0.24" fill="none" />
  <path class="curves" stroke-dasharray="5 5" d="M346.5011,7.464397 C342.5486,20.95247 330.4773,25.35002 318.4284,30.81712 C306.3795,36.28421 294.3531,42.82084 291.0037,53.12397 C287.6542,63.4271 292.9818,77.49674 289.9412,89.52142 C286.9005,101.5461 275.4917,111.5258 263.2553,115.6452 C251.019,119.7647 237.9552,118.0238 225.2438,115.516 C212.5324,113.0082 200.1733,109.7334 188.9711,104.1153 C177.7689,98.49716 167.7237,90.53574 157.5205,82.61849 C147.3173,74.70126 136.9562,66.82819 125.3383,62.25924 C113.7204,57.69027 100.8457,56.42541 88.66993,53.8462 C76.49419,51.26698 65.01738,47.37342 53.33339,49.88877 C41.64941,52.40413 29.75823,61.32841 23.81286,73.21034 C17.86749,85.09227 17.86792,99.93185 1.528677,100.0629" stroke="#000000" stroke-width="0.24" fill="none" />
  <path class="curves" stroke-dasharray="5 5" d="M343.1669,-5.71109 C339.2144,7.776979 327.1431,12.17454 315.0942,17.64163 C303.0453,23.10872 291.0188,29.64535 287.6694,39.94849 C284.3199,50.25162 289.6476,64.32125 286.6069,76.34592 C283.5663,88.3706 272.1574,98.3503 259.9211,102.4697 C247.6848,106.5892 234.621,104.8483 221.9095,102.3405 C209.1981,99.8327 196.839,96.5579 185.6368,90.93979 C174.4347,85.32167 164.3894,77.36025 154.1862,69.44301 C143.983,61.52576 133.6219,53.65271 122.004,49.08375 C110.3861,44.51479 97.51142,43.24992 85.33567,40.67071 C73.15992,38.0915 61.68312,34.19793 49.99913,36.71329 C38.31514,39.22865 26.42397,48.15292 20.4786,60.03485 C14.53323,71.91679 14.53366,86.75636 -1.805585,86.88741" stroke="#000000" stroke-width="0.24" fill="none" />
  <path class="curves" stroke-dasharray="5 5" d="M345.6188,1.605298 C341.6663,15.09337 329.595,19.49092 317.5461,24.95802 C305.4972,30.42511 293.4707,36.96174 290.1213,47.26487 C286.7719,57.568 292.0995,71.63764 289.0588,83.66232 C286.0182,95.68698 274.6093,105.6667 262.373,109.7861 C250.1367,113.9056 237.0729,112.1647 224.3615,109.6569 C211.65,107.1491 199.2909,103.8743 188.0888,98.25617 C176.8866,92.63806 166.8413,84.67664 156.6382,76.75939 C146.435,68.84216 136.0738,60.9691 124.4559,56.40014 C112.838,51.83117 99.96333,50.56631 87.78758,47.98709 C75.61184,45.40788 64.13503,41.51432 52.45105,44.02968 C40.76706,46.54503 28.87589,55.46931 22.93052,67.35124 C16.98514,79.23317 16.98557,94.07275 0.6463307,94.2038" stroke="#000000" stroke-width="0.24" fill="none" />
  <path class="curves" stroke-dasharray="5 5" d="M351.4308,3.27931 C347.4783,16.76738 335.407,21.16494 323.3581,26.63203 C311.3092,32.09912 299.2827,38.63575 295.9333,48.93888 C292.5839,59.24202 297.9115,73.31165 294.8708,85.33633 C291.8302,97.36099 280.4213,107.3407 268.185,111.4601 C255.9487,115.5796 242.8849,113.8387 230.1735,111.3309 C217.462,108.8231 205.1029,105.5483 193.9007,99.93018 C182.6986,94.31207 172.6533,86.35065 162.4501,78.4334 C152.247,70.51617 141.8858,62.64311 130.2679,58.07415 C118.65,53.50518 105.7753,52.24032 93.59958,49.66111 C81.42383,47.08189 69.94703,43.18833 58.26304,45.70369 C46.57906,48.21905 34.68788,57.14333 28.74251,69.02525 C22.79714,80.90718 22.79757,95.74677 6.458325,95.87781" stroke="#000000" stroke-width="0.24" fill="none" />
  <path class="curves" stroke-dasharray="5 5" d="M351.1818,-8.831714 C347.2293,4.656355 335.158,9.053913 323.1091,14.52101 C311.0602,19.9881 299.0338,26.52473 295.6844,36.82786 C292.3349,47.13099 297.6625,61.20063 294.6219,73.2253 C291.5812,85.24997 280.1724,95.22968 267.936,99.34911 C255.6997,103.4686 242.6359,101.7277 229.9245,99.2199 C217.2131,96.71208 204.854,93.43728 193.6518,87.81916 C182.4496,82.20105 172.4044,74.23962 162.2012,66.32238 C151.998,58.40514 141.6369,50.53209 130.019,45.96312 C118.4011,41.39416 105.5264,40.1293 93.35062,37.55008 C81.17487,34.97087 69.69807,31.07731 58.01409,33.59267 C46.3301,36.10802 34.43892,45.0323 28.49355,56.91423 C22.54818,68.79616 22.54861,83.63574 6.209368,83.76678" stroke="#000000" stroke-width="0.24" fill="none" />
  <path class="curves" stroke-dasharray="5 5" d="M355.9156,8.206308 C351.9631,21.69438 339.8918,26.09194 327.8429,31.55903 C315.794,37.02612 303.7675,43.56275 300.4181,53.86588 C297.0687,64.16901 302.3963,78.23866 299.3557,90.26332 C296.315,102.288 284.9061,112.2677 272.6698,116.3871 C260.4335,120.5066 247.3697,118.7657 234.6583,116.2579 C221.9468,113.7501 209.5877,110.4753 198.3856,104.8572 C187.1834,99.23907 177.1381,91.27765 166.935,83.3604 C156.7318,75.44317 146.3707,67.57011 134.7527,63.00114 C123.1348,58.43219 110.2601,57.16732 98.0844,54.58811 C85.90865,52.00889 74.43185,48.11533 62.74786,50.63069 C51.06387,53.14605 39.1727,62.07032 33.22733,73.95226 C27.28196,85.83418 27.28238,100.6738 10.94314,100.8048" stroke="#000000" stroke-width="0.24" fill="none" />
  <path class="curves" stroke-dasharray="5 5" d="M344.9573,11.21923 C341.0048,24.7073 328.9335,29.10486 316.8846,34.57195 C304.8357,40.03905 292.8092,46.57568 289.4598,56.87881 C286.1104,67.18194 291.438,81.25158 288.3973,93.27625 C285.3567,105.3009 273.9478,115.2806 261.7115,119.4001 C249.4752,123.5195 236.4114,121.7787 223.7,119.2708 C210.9885,116.763 198.6294,113.4882 187.4272,107.8701 C176.2251,102.252 166.1798,94.29057 155.9766,86.37333 C145.7735,78.45609 135.4123,70.58303 123.7944,66.01407 C112.1765,61.44511 99.30183,60.18024 87.12608,57.60103 C74.95033,55.02182 63.47353,51.12825 51.78954,53.64361 C40.10555,56.15897 28.21438,65.08324 22.269,76.96518 C16.32363,88.84711 16.32406,103.6867 -0.0151791,103.8177" stroke="#000000" stroke-width="0.24" fill="none" />
  <path class="curves" stroke-dasharray="5 5" d="M344.0616,4.713501 C340.109,18.20157 328.0378,22.59913 315.9889,28.06622 C303.94,33.53331 291.9135,40.06994 288.5641,50.37308 C285.2146,60.67621 290.5422,74.74584 287.5016,86.77052 C284.461,98.79519 273.0521,108.7749 260.8158,112.8943 C248.5794,117.0138 235.5157,115.2729 222.8042,112.7651 C210.0928,110.2573 197.7337,106.9825 186.5315,101.3644 C175.3293,95.74626 165.2841,87.78484 155.0809,79.8676 C144.8777,71.95036 134.5166,64.0773 122.8987,59.50834 C111.2808,54.93938 98.4061,53.67451 86.23035,51.0953 C74.0546,48.51609 62.5778,44.62252 50.89381,47.13788 C39.20982,49.65324 27.31865,58.57751 21.37327,70.45944 C15.4279,82.34138 15.42833,97.18095 -0.9109093,97.312" stroke="#000000" stroke-width="0.24" fill="none" />
  <path class="curves" stroke-dasharray="5 5" d="M345.2208,2.465431 C341.2682,15.9535 329.197,20.35106 317.1481,25.81815 C305.0992,31.28524 293.0727,37.82187 289.7233,48.12501 C286.3738,58.42814 291.7014,72.49777 288.6608,84.52245 C285.6202,96.54712 274.2113,106.5268 261.975,110.6463 C249.7386,114.7657 236.6749,113.0249 223.9634,110.517 C211.252,108.0092 198.8929,104.7344 187.6907,99.11631 C176.4886,93.49819 166.4433,85.53677 156.2401,77.61953 C146.0369,69.70229 135.6758,61.82923 124.0579,57.26027 C112.44,52.69131 99.56531,51.42644 87.38956,48.84723 C75.21381,46.26802 63.73701,42.37445 52.05302,44.88981 C40.36903,47.40517 28.47786,56.32944 22.53249,68.21137 C16.58711,80.09331 16.58754,94.93288 0.2483022,95.06393" stroke="#000000" stroke-width="0.24" fill="none" />
  <path class="curves" stroke-dasharray="5 5" d="M290.931,200.7437 C275.6142,198.9738 275.1969,185.3004 272.9426,173.304 C270.6884,161.3076 266.5974,150.9882 266.8379,138.0678 C267.0785,125.1474 271.6506,109.6259 265.9718,102.5569 C260.293,95.48779 244.3632,96.87111 230.7903,97.17472 C217.2174,97.47834 206.0013,96.70226 194.5044,93.99014 C183.0074,91.27802 171.2296,86.62985 160.7331,80.40962 C150.2366,74.18939 141.0213,66.39709 131.2585,58.83654 C121.4957,51.27598 111.1853,43.94716 99.85997,40.28923 C88.53465,36.6313 76.19445,36.64426 64.28382,34.71108 C52.37319,32.7779 40.89213,28.89858 29.73452,31.47266 C18.57692,34.04675 7.742769,43.07424 2.256004,54.68009 C-3.230761,66.28594 -3.370141,80.47016 -19.07835,80.54238" stroke="#000000" stroke-width="0.24" fill="none" />
  <path class="curves" stroke-dasharray="5 5" d="M308.6905,212.8828 C293.3738,211.113 292.9564,197.4396 290.7021,185.4432 C288.4479,173.4468 284.3569,163.1274 284.5974,150.207 C284.838,137.2866 289.4102,121.7651 283.7314,114.6961 C278.0525,107.627 262.1227,109.0103 248.5498,109.3139 C234.9769,109.6175 223.7608,108.8415 212.2639,106.1293 C200.7669,103.4172 188.9891,98.76905 178.4926,92.54882 C167.9961,86.32859 158.7809,78.53629 149.0181,70.97573 C139.2552,63.41518 128.9448,56.08636 117.6195,52.42843 C106.2942,48.7705 93.95398,48.78345 82.04334,46.85027 C70.13271,44.91709 58.65165,41.03777 47.49405,43.61186 C36.33644,46.18594 25.50229,55.21343 20.01553,66.81928 C14.52876,78.42514 14.38938,92.60935 -1.318823,92.68158" stroke="#000000" stroke-width="0.24" fill="none" />
  <path class="curves" stroke-dasharray="5 5" d="M334.733,210.2326 C319.4163,208.4628 318.9989,194.7894 316.7447,182.793 C314.4905,170.7966 310.3994,160.4772 310.64,147.5567 C310.8805,134.6363 315.4527,119.1149 309.7739,112.0458 C304.0951,104.9767 288.1653,106.36 274.5923,106.6637 C261.0194,106.9673 249.8033,106.1912 238.3064,103.4791 C226.8095,100.767 215.0316,96.11879 204.5351,89.89856 C194.0386,83.67833 184.8234,75.88603 175.0606,68.32548 C165.2978,60.76492 154.9873,53.4361 143.662,49.77817 C132.3367,46.12024 119.9965,46.13319 108.0859,44.20001 C96.17524,42.26683 84.69418,38.38751 73.53658,40.9616 C62.37897,43.53568 51.54482,52.56317 46.05806,64.16902 C40.57129,75.77488 40.43191,89.9591 24.72371,90.03132" stroke="#000000" stroke-width="0.24" fill="none" />
  <path class="curves" stroke-dasharray="5 5" d="M308.9759,217.6029 C293.6591,215.8331 293.2418,202.1597 290.9875,190.1633 C288.7333,178.1669 284.6422,167.8475 284.8828,154.927 C285.1234,142.0066 289.6955,126.4852 284.0167,119.4161 C278.3379,112.347 262.4081,113.7303 248.8352,114.034 C235.2623,114.3376 224.0462,113.5615 212.5493,110.8494 C201.0523,108.1373 189.2745,103.4891 178.778,97.26887 C168.2815,91.04864 159.0663,83.25634 149.3034,75.69578 C139.5406,68.13522 129.2302,60.80641 117.9049,57.14848 C106.5796,53.49054 94.23936,53.5035 82.32873,51.57032 C70.4181,49.63714 58.93703,45.75782 47.77943,48.33191 C36.62183,50.90599 25.78768,59.93348 20.30091,71.53933 C14.81415,83.14519 14.67477,97.3294 -1.033439,97.40163" stroke="#000000" stroke-width="0.24" fill="none" />
  <path class="curves" stroke-dasharray="5 5" d="M308.1275,239.3669 C292.8107,237.5971 292.3933,223.9237 290.1391,211.9273 C287.8849,199.9309 283.7938,189.6115 284.0344,176.6911 C284.2749,163.7707 288.8471,148.2492 283.1683,141.1802 C277.4895,134.1111 261.5597,135.4944 247.9868,135.798 C234.4138,136.1016 223.1978,135.3256 211.7009,132.6134 C200.2039,129.9013 188.4261,125.2532 177.9296,119.0329 C167.4331,112.8127 158.2178,105.0204 148.455,97.45983 C138.6922,89.89928 128.3818,82.57046 117.0565,78.91253 C105.7311,75.2546 93.39094,75.26756 81.48031,73.33437 C69.56968,71.40119 58.08862,67.52187 46.93101,70.09595 C35.77341,72.67004 24.93926,81.69753 19.45249,93.30338 C13.96573,104.9092 13.82635,119.0935 -1.881858,119.1657" stroke="#000000" stroke-width="0.24" fill="none" />
  <path class="curves" stroke-dasharray="5 5" d="M321.7083,189.4003 C306.3916,187.6305 305.9742,173.9571 303.72,161.9607 C301.4657,149.9643 297.3747,139.6449 297.6152,126.7245 C297.8558,113.8041 302.4279,98.28261 296.7491,91.21354 C291.0703,84.14448 275.1405,85.52779 261.5676,85.83141 C247.9947,86.13502 236.7786,85.35894 225.2817,82.64682 C213.7847,79.9347 202.0069,75.28654 191.5104,69.06631 C181.0139,62.84607 171.7987,55.05378 162.0359,47.49322 C152.273,39.93266 141.9626,32.60384 130.6373,28.94591 C119.312,25.28798 106.9718,25.30094 95.06115,23.36776 C83.15051,21.43458 71.66946,17.55526 60.51185,20.12934 C49.35425,22.70343 38.5201,31.73092 33.03333,43.33677 C27.54657,54.94262 27.40719,69.12684 11.69898,69.19907" stroke="#000000" stroke-width="0.24" fill="none" />
  <path class="curves" stroke-dasharray="5 5" d="M295.4522,233.2855 C280.1354,231.5157 279.718,217.8423 277.4638,205.8459 C275.2096,193.8495 271.1186,183.5301 271.3591,170.6097 C271.5997,157.6893 276.1718,142.1678 270.493,135.0987 C264.8142,128.0297 248.8844,129.413 235.3115,129.7166 C221.7386,130.0202 210.5225,129.2441 199.0256,126.532 C187.5286,123.8199 175.7508,119.1717 165.2543,112.9515 C154.7578,106.7313 145.5426,98.93898 135.7797,91.37843 C126.0169,83.81786 115.7065,76.48904 104.3812,72.83112 C93.05585,69.17319 80.71565,69.18614 68.80502,67.25296 C56.89439,65.31978 45.41333,61.44046 34.25573,64.01455 C23.09812,66.58863 12.26397,75.61612 6.777206,87.22197 C1.290441,98.82783 1.151061,113.012 -14.55715,113.0843" stroke="#000000" stroke-width="0.24" fill="none" />
  <path class="curves" stroke-dasharray="5 5" d="M316.878,197.6604 C301.5612,195.8906 301.1438,182.2172 298.8896,170.2208 C296.6354,158.2244 292.5443,147.905 292.7849,134.9846 C293.0255,122.0641 297.5976,106.5427 291.9188,99.47364 C286.24,92.40457 270.3102,93.78789 256.7373,94.0915 C243.1643,94.39512 231.9483,93.61904 220.4513,90.90692 C208.9544,88.1948 197.1766,83.54663 186.6801,77.3264 C176.1835,71.10617 166.9683,63.31387 157.2055,55.75331 C147.4427,48.19276 137.1323,40.86394 125.807,37.20601 C114.4816,33.54808 102.1414,33.56104 90.2308,31.62786 C78.32018,29.69467 66.83911,25.81536 55.68151,28.38944 C44.5239,30.96353 33.68975,39.99102 28.20299,51.59687 C22.71622,63.20272 22.57684,77.38694 6.868637,77.45916" stroke="#000000" stroke-width="0.24" fill="none" />
  <path class="curves" stroke-dasharray="5 5" d="M311.3529,227.6301 C296.0362,225.8603 295.6188,212.1869 293.3646,200.1905 C291.1104,188.1941 287.0193,177.8747 287.2598,164.9543 C287.5004,152.0338 292.0726,136.5124 286.3937,129.4433 C280.7149,122.3742 264.7851,123.7576 251.2122,124.0612 C237.6393,124.3648 226.4232,123.5887 214.9263,120.8766 C203.4294,118.1645 191.6515,113.5163 181.155,107.2961 C170.6585,101.0758 161.4433,93.28355 151.6805,85.72299 C141.9176,78.16243 131.6072,70.83361 120.2819,67.17568 C108.9566,63.51775 96.61638,63.53071 84.70575,61.59753 C72.79511,59.66435 61.31406,55.78503 50.15645,58.35911 C38.99885,60.9332 28.1647,69.96069 22.67793,81.56654 C17.19117,93.17239 17.05179,107.3566 1.343581,107.4288" stroke="#000000" stroke-width="0.24" fill="none" />
  <path class="curves" stroke-dasharray="5 5" d="M283.2078,224.4989 C267.891,222.7291 267.4736,209.0557 265.2194,197.0593 C262.9652,185.0629 258.8741,174.7435 259.1147,161.8231 C259.3552,148.9026 263.9274,133.3812 258.2486,126.3121 C252.5698,119.2431 236.64,120.6264 223.0671,120.93 C209.4941,121.2336 198.2781,120.4575 186.7811,117.7454 C175.2842,115.0333 163.5064,110.3851 153.0099,104.1649 C142.5133,97.94466 133.2981,90.15236 123.5353,82.5918 C113.7725,75.03125 103.4621,67.70243 92.13675,64.04449 C80.81143,60.38657 68.47123,60.39952 56.5606,58.46634 C44.64996,56.53316 33.16891,52.65384 22.0113,55.22793 C10.8537,57.80201 0.01954637,66.8295 -5.467218,78.43536 C-10.95398,90.04121 -11.09336,104.2254 -26.80157,104.2977" stroke="#000000" stroke-width="0.24" fill="none" />
  <path class="curves" stroke-dasharray="5 5" d="M316.2513,224.824 C300.9345,223.0542 300.5171,209.3808 298.2629,197.3844 C296.0087,185.388 291.9176,175.0686 292.1582,162.1481 C292.3987,149.2277 296.9709,133.7063 291.2921,126.6372 C285.6133,119.5682 269.6835,120.9515 256.1106,121.2551 C242.5376,121.5587 231.3216,120.7826 219.8246,118.0705 C208.3277,115.3584 196.5499,110.7102 186.0534,104.49 C175.5568,98.26975 166.3416,90.47746 156.5788,82.91689 C146.816,75.35634 136.5056,68.02752 125.1802,64.36959 C113.8549,60.71166 101.5147,60.72462 89.6041,58.79144 C77.69347,56.85825 66.2124,52.97894 55.0548,55.55302 C43.89719,58.12711 33.06305,67.15459 27.57628,78.76044 C22.08951,90.3663 21.95013,104.5505 6.241928,104.6227" stroke="#000000" stroke-width="0.24" fill="none" />
  <path class="curves" stroke-dasharray="5 5" d="M300.1076,195.7417 C284.7909,193.9719 284.3735,180.2985 282.1193,168.3021 C279.8651,156.3057 275.774,145.9863 276.0146,133.0659 C276.2551,120.1454 280.8273,104.624 275.1485,97.55492 C269.4697,90.48586 253.5399,91.86916 239.9669,92.17278 C226.394,92.47639 215.178,91.70032 203.681,88.9882 C192.1841,86.27608 180.4063,81.62791 169.9098,75.40768 C159.4132,69.18745 150.198,61.39515 140.4352,53.83459 C130.6724,46.27404 120.362,38.94522 109.0366,35.28729 C97.71133,31.62936 85.37112,31.64231 73.46049,29.70914 C61.54986,27.77595 50.0688,23.89664 38.91119,26.47072 C27.75359,29.04481 16.91944,38.07229 11.43268,49.67815 C5.945912,61.284 5.806531,75.46822 -9.901674,75.54044" stroke="#000000" stroke-width="0.24" fill="none" />
  <path class="curves" stroke-dasharray="5 5" d="M283.696,225.4304 C268.3792,223.6605 267.9619,209.9872 265.7076,197.9908 C263.4534,185.9944 259.3623,175.6749 259.6029,162.7545 C259.8434,149.8341 264.4156,134.3126 258.7368,127.2436 C253.058,120.1745 237.1282,121.5578 223.5553,121.8614 C209.9823,122.1651 198.7663,121.389 187.2693,118.6769 C175.7724,115.9647 163.9946,111.3166 153.4981,105.0963 C143.0016,98.87611 133.7863,91.08382 124.0235,83.52325 C114.2607,75.9627 103.9503,68.63388 92.62496,64.97595 C81.29964,61.31802 68.95944,61.33097 57.04881,59.39779 C45.13818,57.46461 33.65712,53.58529 22.49951,56.15938 C11.34191,58.73346 0.507759,67.76096 -4.979006,79.36681 C-10.46577,90.97266 -10.60515,105.1569 -26.31336,105.2291" stroke="#000000" stroke-width="0.24" fill="none" />
  <path class="curves" stroke-dasharray="5 5" d="M325.0723,199.7756 C309.7556,198.0058 309.3382,184.3324 307.084,172.336 C304.8297,160.3396 300.7387,150.0202 300.9792,137.0998 C301.2198,124.1794 305.792,108.6579 300.1131,101.5889 C294.4343,94.51979 278.5045,95.9031 264.9316,96.20672 C251.3587,96.51034 240.1426,95.73426 228.6457,93.02213 C217.1487,90.31001 205.3709,85.66185 194.8744,79.44162 C184.3779,73.22139 175.1627,65.42909 165.3998,57.86853 C155.637,50.30798 145.3266,42.97916 134.0013,39.32123 C122.676,35.6633 110.3358,35.67625 98.42514,33.74307 C86.5145,31.80989 75.03345,27.93057 63.87584,30.50466 C52.71824,33.07874 41.88409,42.10623 36.39732,53.71209 C30.91056,65.31794 30.77118,79.50215 15.06297,79.57438" stroke="#000000" stroke-width="0.24" fill="none" />
  <path class="curves" stroke-dasharray="5 5" d="M317.7946,214.5163 C302.4779,212.7465 302.0605,199.0731 299.8063,187.0767 C297.552,175.0803 293.461,164.7609 293.7015,151.8404 C293.9421,138.92 298.5143,123.3986 292.8354,116.3295 C287.1566,109.2604 271.2268,110.6438 257.6539,110.9474 C244.081,111.251 232.8649,110.4749 221.368,107.7628 C209.871,105.0507 198.0932,100.4025 187.5967,94.18227 C177.1002,87.96204 167.885,80.16975 158.1222,72.60918 C148.3593,65.04863 138.0489,57.71981 126.7236,54.06188 C115.3983,50.40395 103.0581,50.4169 91.14745,48.48373 C79.23682,46.55054 67.75576,42.67123 56.59816,45.24531 C45.44055,47.8194 34.6064,56.84689 29.11964,68.45274 C23.63287,80.05859 23.49349,94.24281 7.785285,94.31503" stroke="#000000" stroke-width="0.24" fill="none" />
  <path class="curves" stroke-dasharray="5 5" d="M325.3586,229.8509 C310.0419,228.081 309.6245,214.4077 307.3703,202.4113 C305.1161,190.4149 301.025,180.0954 301.2655,167.175 C301.5061,154.2546 306.0782,138.7331 300.3994,131.6641 C294.7206,124.595 278.7908,125.9783 265.2179,126.2819 C251.645,126.5856 240.4289,125.8095 228.932,123.0974 C217.435,120.3852 205.6572,115.7371 195.1607,109.5168 C184.6642,103.2966 175.449,95.50432 165.6862,87.94376 C155.9233,80.3832 145.6129,73.05438 134.2876,69.39645 C122.9623,65.73852 110.6221,65.75148 98.71145,63.81829 C86.80082,61.88512 75.31976,58.00579 64.16216,60.57988 C53.00455,63.15396 42.1704,72.18146 36.68364,83.78731 C31.19687,95.39316 31.05749,109.5774 15.34929,109.6496" stroke="#000000" stroke-width="0.24" fill="none" />
  <path class="curves" stroke-dasharray="5 5" d="M315.4195,237.7829 C300.1028,236.013 299.6854,222.3396 297.4312,210.3432 C295.177,198.3468 291.0859,188.0274 291.3265,175.107 C291.567,162.1866 296.1392,146.6651 290.4604,139.5961 C284.7816,132.527 268.8518,133.9103 255.2788,134.2139 C241.7059,134.5175 230.4899,133.7415 218.9929,131.0294 C207.496,128.3172 195.7182,123.6691 185.2216,117.4488 C174.7251,111.2286 165.5099,103.4363 155.7471,95.87576 C145.9843,88.31519 135.6738,80.98637 124.3485,77.32845 C113.0232,73.67052 100.683,73.68347 88.77238,71.75029 C76.86176,69.81711 65.38069,65.93779 54.22309,68.51188 C43.06548,71.08596 32.23133,80.11345 26.74457,91.7193 C21.2578,103.3252 21.11842,117.5094 5.410217,117.5816" stroke="#000000" stroke-width="0.24" fill="none" />
  <path class="curves" stroke-dasharray="5 5" d="M324.9412,219.8382 C309.6245,218.0684 309.2071,204.395 306.9529,192.3986 C304.6987,180.4022 300.6076,170.0828 300.8481,157.1624 C301.0887,144.242 305.6609,128.7205 299.9821,121.6515 C294.3033,114.5824 278.3735,115.9657 264.8005,116.2693 C251.2276,116.5729 240.0116,115.7969 228.5146,113.0847 C217.0177,110.3726 205.2399,105.7244 194.7433,99.50422 C184.2468,93.28399 175.0316,85.49169 165.2688,77.93113 C155.506,70.37057 145.1955,63.04176 133.8702,59.38383 C122.5449,55.72589 110.2047,55.73885 98.29408,53.80567 C86.38344,51.87249 74.90238,47.99317 63.74478,50.56726 C52.58717,53.14134 41.75302,62.16883 36.26626,73.77468 C30.77949,85.38053 30.64011,99.56475 14.93191,99.63698" stroke="#000000" stroke-width="0.24" fill="none" />
  <path class="curves" stroke-dasharray="5 5" d="M304.2758,214.1357 C288.959,212.3659 288.5417,198.6925 286.2874,186.6961 C284.0332,174.6997 279.9421,164.3803 280.1827,151.4599 C280.4232,138.5395 284.9954,123.018 279.3166,115.949 C273.6378,108.8799 257.708,110.2632 244.1351,110.5668 C230.5622,110.8704 219.3461,110.0944 207.8492,107.3822 C196.3522,104.6701 184.5744,100.0219 174.0779,93.80171 C163.5814,87.58148 154.3661,79.78918 144.6033,72.22863 C134.8405,64.66807 124.5301,57.33925 113.2048,53.68132 C101.8795,50.02339 89.53925,50.03635 77.62862,48.10317 C65.71799,46.16999 54.23693,42.29067 43.07933,44.86475 C31.92172,47.43884 21.08757,56.46633 15.60081,68.07218 C10.11404,79.67803 9.974662,93.86225 -5.733544,93.93447" stroke="#000000" stroke-width="0.24" fill="none" />
  <path class="curves" stroke-dasharray="5 5" d="M299.7307,208.2727 C284.414,206.5029 283.9966,192.8295 281.7424,180.8331 C279.4882,168.8367 275.3971,158.5173 275.6376,145.5968 C275.8782,132.6764 280.4504,117.155 274.7715,110.0859 C269.0927,103.0168 253.1629,104.4001 239.59,104.7038 C226.0171,105.0074 214.801,104.2313 203.3041,101.5192 C191.8072,98.80705 180.0293,94.15889 169.5328,87.93866 C159.0363,81.71842 149.8211,73.92612 140.0583,66.36557 C130.2955,58.80501 119.985,51.4762 108.6597,47.81826 C97.3344,44.16033 84.99419,44.17329 73.08356,42.24011 C61.17293,40.30693 49.69187,36.42761 38.53427,39.00169 C27.37666,41.57578 16.54251,50.60327 11.05575,62.20912 C5.568982,73.81497 5.429602,87.99919 -10.2786,88.07142" stroke="#000000" stroke-width="0.24" fill="none" />
  <path class="curves" stroke-dasharray="5 5" d="M335.9059,212.892 C320.5891,211.1221 320.1717,197.4487 317.9175,185.4523 C315.6633,173.4559 311.5722,163.1365 311.8128,150.2161 C312.0533,137.2957 316.6255,121.7742 310.9467,114.7052 C305.2679,107.6361 289.3381,109.0194 275.7652,109.323 C262.1922,109.6267 250.9762,108.8506 239.4792,106.1385 C227.9823,103.4263 216.2045,98.77817 205.708,92.55794 C195.2114,86.33771 185.9962,78.54541 176.2334,70.98486 C166.4706,63.4243 156.1602,56.09548 144.8349,52.43755 C133.5095,48.77962 121.1693,48.79257 109.2587,46.85939 C97.34807,44.92621 85.867,41.04689 74.7094,43.62098 C63.5518,46.19506 52.71765,55.22255 47.23088,66.82841 C41.74412,78.43426 41.60474,92.61848 25.89653,92.6907" stroke="#000000" stroke-width="0.24" fill="none" />
  <path class="curves" stroke-dasharray="5 5" d="M287.1444,223.134 C271.8277,221.3642 271.4103,207.6908 269.1561,195.6944 C266.9018,183.698 262.8108,173.3786 263.0513,160.4582 C263.2919,147.5377 267.864,132.0163 262.1852,124.9472 C256.5064,117.8782 240.5766,119.2615 227.0037,119.5651 C213.4308,119.8687 202.2147,119.0926 190.7178,116.3805 C179.2208,113.6684 167.443,109.0202 156.9465,102.8 C146.45,96.57976 137.2348,88.78746 127.472,81.2269 C117.7091,73.66634 107.3987,66.33752 96.07339,62.6796 C84.74808,59.02166 72.40788,59.03462 60.49724,57.10144 C48.58661,55.16826 37.10555,51.28894 25.94795,53.86303 C14.79034,56.43711 3.956192,65.4646 -1.530573,77.07045 C-7.017337,88.67631 -7.156718,102.8605 -22.86492,102.9327" stroke="#000000" stroke-width="0.24" fill="none" />
  <path class="curves" stroke-dasharray="5 5" d="M313.3052,218.4532 C297.9885,216.6834 297.5711,203.01 295.3168,191.0136 C293.0626,179.0172 288.9716,168.6978 289.2121,155.7773 C289.4527,142.8569 294.0248,127.3355 288.346,120.2664 C282.6672,113.1973 266.7374,114.5807 253.1645,114.8843 C239.5916,115.1879 228.3755,114.4118 216.8786,111.6997 C205.3816,108.9876 193.6038,104.3394 183.1073,98.11917 C172.6108,91.89894 163.3956,84.10664 153.6327,76.54609 C143.8699,68.98553 133.5595,61.65671 122.2342,57.99878 C110.9089,54.34085 98.56866,54.35381 86.65804,52.42063 C74.7474,50.48745 63.26634,46.60813 52.10873,49.18221 C40.95113,51.7563 30.11698,60.78379 24.63022,72.38964 C19.14345,83.99549 19.00407,98.17971 3.295865,98.25194" stroke="#000000" stroke-width="0.24" fill="none" />
  <path class="curves" stroke-dasharray="5 5" d="M302.8831,196.5877 C287.5664,194.8179 287.149,181.1445 284.8948,169.1481 C282.6406,157.1517 278.5495,146.8323 278.7901,133.9118 C279.0306,120.9914 283.6028,105.47 277.924,98.4009 C272.2452,91.33183 256.3154,92.71515 242.7424,93.01876 C229.1695,93.32238 217.9535,92.5463 206.4565,89.83418 C194.9596,87.12206 183.1818,82.4739 172.6852,76.25366 C162.1887,70.03343 152.9735,62.24114 143.2107,54.68058 C133.4479,47.12002 123.1374,39.79121 111.8121,36.13327 C100.4868,32.47534 88.14661,32.4883 76.23598,30.55512 C64.32535,28.62194 52.84429,24.74262 41.68668,27.3167 C30.52908,29.89079 19.69493,38.91828 14.20816,50.52413 C8.721397,62.12998 8.582017,76.3142 -7.126189,76.38643" stroke="#000000" stroke-width="0.24" fill="none" />
  <path class="curves" stroke-dasharray="5 5" d="M318.1658,224.2285 C302.8491,222.4587 302.4317,208.7853 300.1775,196.7889 C297.9232,184.7925 293.8322,174.4731 294.0728,161.5527 C294.3133,148.6322 298.8855,133.1108 293.2067,126.0417 C287.5279,118.9727 271.5981,120.356 258.0251,120.6596 C244.4522,120.9632 233.2361,120.1871 221.7392,117.475 C210.2423,114.7629 198.4644,110.1147 187.9679,103.8945 C177.4714,97.67425 168.2562,89.88195 158.4934,82.3214 C148.7306,74.76084 138.4201,67.43202 127.0948,63.77409 C115.7695,60.11616 103.4293,60.12912 91.51867,58.19593 C79.60803,56.26275 68.12698,52.38343 56.96937,54.95752 C45.81176,57.5316 34.97762,66.5591 29.49085,78.16495 C24.00409,89.7708 23.86471,103.955 8.1565,104.0272" stroke="#000000" stroke-width="0.24" fill="none" />
  <path class="curves" stroke-dasharray="5 5" d="M332.0067,232.6769 C316.69,230.9071 316.2726,217.2337 314.0184,205.2373 C311.7641,193.2409 307.6731,182.9215 307.9136,170.0011 C308.1542,157.0806 312.7263,141.5592 307.0475,134.4901 C301.3687,127.4211 285.4389,128.8044 271.866,129.108 C258.2931,129.4116 247.077,128.6355 235.5801,125.9234 C224.0831,123.2113 212.3053,118.5631 201.8088,112.3429 C191.3123,106.1227 182.0971,98.33038 172.3343,90.76982 C162.5714,83.20926 152.261,75.88044 140.9357,72.22251 C129.6104,68.56458 117.2702,68.57754 105.3596,66.64436 C93.44891,64.71117 81.96786,60.83186 70.81025,63.40594 C59.65265,65.98003 48.8185,75.00751 43.33173,86.61337 C37.84497,98.21922 37.70559,112.4034 21.99738,112.4757" stroke="#000000" stroke-width="0.24" fill="none" />
  <path class="curves" stroke-dasharray="5 5" d="M308.8383,217.4145 C293.5216,215.6446 293.1042,201.9713 290.85,189.9749 C288.5958,177.9785 284.5047,167.659 284.7453,154.7386 C284.9858,141.8182 289.558,126.2967 283.8792,119.2277 C278.2004,112.1586 262.2706,113.5419 248.6976,113.8455 C235.1247,114.1492 223.9087,113.3731 212.4117,110.661 C200.9148,107.9488 189.137,103.3007 178.6404,97.08044 C168.1439,90.86021 158.9287,83.06792 149.1659,75.50735 C139.4031,67.9468 129.0927,60.61798 117.7673,56.96005 C106.442,53.30212 94.10181,53.31507 82.19118,51.38189 C70.28055,49.44871 58.79949,45.56939 47.64188,48.14348 C36.48428,50.71756 25.65013,59.74505 20.16337,71.35091 C14.6766,82.95676 14.53722,97.14098 -1.170985,97.2132" stroke="#000000" stroke-width="0.24" fill="none" />
  <path class="curves" stroke-dasharray="5 5" d="M308.4722,242.0555 C293.1554,240.2857 292.738,226.6123 290.4838,214.6159 C288.2296,202.6195 284.1385,192.3001 284.3791,179.3797 C284.6197,166.4592 289.1918,150.9378 283.513,143.8687 C277.8342,136.7997 261.9044,138.183 248.3315,138.4866 C234.7585,138.7902 223.5425,138.0141 212.0455,135.302 C200.5486,132.5899 188.7708,127.9417 178.2743,121.7215 C167.7778,115.5013 158.5625,107.709 148.7997,100.1484 C139.0369,92.58786 128.7265,85.25904 117.4012,81.60111 C106.0758,77.94318 93.73564,77.95614 81.82501,76.02296 C69.91438,74.08978 58.43332,70.21046 47.27571,72.78455 C36.11811,75.35863 25.28396,84.38612 19.79719,95.99197 C14.31043,107.5978 14.17105,121.782 -1.537157,121.8543" stroke="#000000" stroke-width="0.24" fill="none" />
  <path class="curves" stroke-dasharray="5 5" d="M298.3845,206.7944 C283.0677,205.0246 282.6503,191.3512 280.3961,179.3548 C278.1419,167.3584 274.0508,157.039 274.2914,144.1186 C274.5319,131.1981 279.1041,115.6767 273.4253,108.6076 C267.7465,101.5386 251.8167,102.9219 238.2438,103.2255 C224.6708,103.5291 213.4548,102.753 201.9578,100.0409 C190.4609,97.32877 178.6831,92.68061 168.1866,86.46038 C157.69,80.24015 148.4748,72.44785 138.712,64.8873 C128.9492,57.32674 118.6388,49.99792 107.3134,46.33999 C95.98813,42.68206 83.64793,42.69501 71.7373,40.76183 C59.82666,38.82865 48.3456,34.94933 37.188,37.52342 C26.0304,40.0975 15.19625,49.12499 9.70948,60.73085 C4.222716,72.3367 4.083335,86.52092 -11.62487,86.59314" stroke="#000000" stroke-width="0.24" fill="none" />
  <path class="curves" stroke-dasharray="5 5" d="M317.3625,223.3888 C302.0457,221.619 301.6283,207.9456 299.3741,195.9492 C297.1199,183.9528 293.0288,173.6334 293.2694,160.7129 C293.5099,147.7925 298.0821,132.2711 292.4033,125.202 C286.7245,118.1329 270.7947,119.5162 257.2218,119.8199 C243.6488,120.1235 232.4328,119.3474 220.9358,116.6353 C209.4389,113.9231 197.6611,109.275 187.1646,103.0548 C176.668,96.83453 167.4528,89.04223 157.69,81.48167 C147.9272,73.92111 137.6168,66.59229 126.2914,62.93436 C114.9661,59.27644 102.6259,59.28939 90.71529,57.35621 C78.80466,55.42303 67.3236,51.54371 56.166,54.11779 C45.00839,56.69188 34.17424,65.71937 28.68748,77.32522 C23.20071,88.93108 23.06133,103.1153 7.353127,103.1875" stroke="#000000" stroke-width="0.24" fill="none" />
  <path class="curves" stroke-dasharray="5 5" d="M284.1342,225.5091 C268.8174,223.7393 268.4001,210.0659 266.1458,198.0695 C263.8916,186.0731 259.8005,175.7537 260.0411,162.8333 C260.2816,149.9128 264.8538,134.3914 259.175,127.3223 C253.4962,120.2533 237.5664,121.6366 223.9935,121.9402 C210.4205,122.2438 199.2045,121.4677 187.7076,118.7556 C176.2106,116.0435 164.4328,111.3953 153.9363,105.1751 C143.4398,98.95486 134.2245,91.16256 124.4617,83.602 C114.6989,76.04144 104.3885,68.71262 93.06316,65.0547 C81.73785,61.39676 69.39764,61.40972 57.48701,59.47654 C45.57638,57.54336 34.09532,53.66404 22.93772,56.23812 C11.78011,58.81221 0.9459636,67.8397 -4.540801,79.44555 C-10.02757,91.05141 -10.16695,105.2356 -25.87515,105.3078" stroke="#000000" stroke-width="0.24" fill="none" />
  <path class="curves" stroke-dasharray="5 5" d="M310.9457,206.6852 C295.6289,204.9154 295.2115,191.242 292.9573,179.2456 C290.7031,167.2492 286.612,156.9298 286.8526,144.0093 C287.0931,131.0889 291.6653,115.5675 285.9865,108.4984 C280.3077,101.4293 264.3779,102.8126 250.805,103.1163 C237.2321,103.4199 226.016,102.6438 214.5191,99.93168 C203.0221,97.21956 191.2443,92.5714 180.7478,86.35116 C170.2513,80.13093 161.036,72.33863 151.2732,64.77808 C141.5104,57.21752 131.2,49.8887 119.8747,46.23077 C108.5494,42.57284 96.20915,42.5858 84.29852,40.65261 C72.38789,38.71943 60.90683,34.84011 49.74922,37.4142 C38.59162,39.98829 27.75747,49.01577 22.2707,60.62162 C16.78394,72.22748 16.64456,86.4117 0.9363508,86.48392" stroke="#000000" stroke-width="0.24" fill="none" />
  <path class="curves" stroke-dasharray="5 5" d="M337.9206,206.1651 C322.6038,204.3953 322.1864,190.7219 319.9322,178.7255 C317.678,166.7291 313.5869,156.4097 313.8275,143.4893 C314.068,130.5689 318.6402,115.0474 312.9614,107.9784 C307.2826,100.9093 291.3528,102.2926 277.7799,102.5962 C264.2069,102.8998 252.9909,102.1238 241.4939,99.41164 C229.997,96.69952 218.2192,92.05135 207.7227,85.83112 C197.2262,79.61089 188.0109,71.81859 178.2481,64.25803 C168.4853,56.69748 158.1749,49.36866 146.8495,45.71073 C135.5242,42.0528 123.184,42.06575 111.2734,40.13257 C99.36277,38.19939 87.88171,34.32007 76.72411,36.89416 C65.5665,39.46824 54.73235,48.49573 49.24559,60.10159 C43.75882,71.70744 43.61944,85.89165 27.91124,85.96388" stroke="#000000" stroke-width="0.24" fill="none" />
  <path class="curves" stroke-dasharray="5 5" d="M323.7533,225.6547 C308.4366,223.8849 308.0192,210.2115 305.765,198.2151 C303.5107,186.2187 299.4197,175.8993 299.6602,162.9789 C299.9008,150.0585 304.473,134.537 298.7941,127.4679 C293.1153,120.3989 277.1855,121.7822 263.6126,122.0858 C250.0397,122.3894 238.8236,121.6133 227.3267,118.9012 C215.8297,116.1891 204.0519,111.5409 193.5554,105.3207 C183.0589,99.10049 173.8437,91.30819 164.0809,83.74763 C154.318,76.18707 144.0076,68.85825 132.6823,65.20033 C121.357,61.54239 109.0168,61.55535 97.10615,59.62217 C85.19551,57.68898 73.71445,53.80967 62.55685,56.38375 C51.39924,58.95784 40.56509,67.98533 35.07833,79.59118 C29.59156,91.19703 29.45218,105.3812 13.74398,105.4535" stroke="#000000" stroke-width="0.24" fill="none" />
  <path class="curves" stroke-dasharray="5 5" d="M309.4804,244.298 C294.1637,242.5282 293.7463,228.8548 291.4921,216.8584 C289.2379,204.862 285.1468,194.5426 285.3874,181.6221 C285.6279,168.7017 290.2001,153.1803 284.5213,146.1112 C278.8425,139.0421 262.9127,140.4255 249.3397,140.7291 C235.7668,141.0327 224.5508,140.2566 213.0538,137.5445 C201.5569,134.8324 189.7791,130.1842 179.2825,123.964 C168.786,117.7437 159.5708,109.9514 149.808,102.3909 C140.0452,94.83033 129.7347,87.50151 118.4094,83.84358 C107.0841,80.18565 94.7439,80.19861 82.83327,78.26543 C70.92264,76.33224 59.44158,72.45293 48.28397,75.02701 C37.12637,77.6011 26.29222,86.62859 20.80546,98.23444 C15.31869,109.8403 15.17931,124.0245 -0.5288948,124.0967" stroke="#000000" stroke-width="0.24" fill="none" />
  <path class="curves" stroke-dasharray="5 5" d="M306.4867,185.6967 C291.1699,183.9269 290.7525,170.2535 288.4983,158.2571 C286.2441,146.2607 282.153,135.9413 282.3936,123.0209 C282.6341,110.1005 287.2063,94.57902 281.5275,87.50995 C275.8487,80.44089 259.9189,81.8242 246.346,82.12782 C232.773,82.43143 221.557,81.65535 210.06,78.94323 C198.5631,76.23111 186.7853,71.58295 176.2888,65.36272 C165.7922,59.14248 156.577,51.35019 146.8142,43.78963 C137.0514,36.22907 126.741,28.90025 115.4156,25.24232 C104.0903,21.58439 91.75013,21.59735 79.8395,19.66417 C67.92886,17.73099 56.44781,13.85167 45.2902,16.42575 C34.1326,18.99984 23.29845,28.02733 17.81168,39.63318 C12.32492,51.23903 12.18554,65.42325 -3.522669,65.49548" stroke="#000000" stroke-width="0.24" fill="none" />
  <path class="curves" stroke-dasharray="5 5" d="M308.8515,217.3777 C293.5348,215.6079 293.1174,201.9345 290.8632,189.9381 C288.6089,177.9417 284.5179,167.6223 284.7584,154.7019 C284.999,141.7815 289.5711,126.26 283.8923,119.1909 C278.2135,112.1219 262.2837,113.5052 248.7108,113.8088 C235.1379,114.1124 223.9218,113.3363 212.4249,110.6242 C200.9279,107.9121 189.1501,103.2639 178.6536,97.04372 C168.1571,90.82348 158.9419,83.03118 149.179,75.47063 C139.4162,67.91007 129.1058,60.58125 117.7805,56.92332 C106.4552,53.26539 94.11497,53.27835 82.20433,51.34517 C70.2937,49.41198 58.81264,45.53267 47.65504,48.10675 C36.49743,50.68084 25.66328,59.70832 20.17652,71.31418 C14.68975,82.92003 14.55037,97.10425 -1.157834,97.17648" stroke="#000000" stroke-width="0.24" fill="none" />
  <path class="curves" stroke-dasharray="5 5" d="M297.8732,222.8042 C282.5565,221.0343 282.1391,207.3609 279.8849,195.3645 C277.6306,183.3681 273.5396,173.0487 273.7802,160.1283 C274.0207,147.2079 278.5929,131.6864 272.9141,124.6174 C267.2352,117.5483 251.3055,118.9316 237.7325,119.2352 C224.1596,119.5388 212.9435,118.7628 201.4466,116.0506 C189.9497,113.3385 178.1718,108.6904 167.6753,102.4701 C157.1788,96.24989 147.9636,88.4576 138.2008,80.89703 C128.4379,73.33648 118.1275,66.00766 106.8022,62.34973 C95.47689,58.6918 83.13669,58.70476 71.22606,56.77158 C59.31543,54.83839 47.83437,50.95908 36.67676,53.53316 C25.51916,56.10725 14.68501,65.13474 9.198242,76.74059 C3.711477,88.34644 3.572097,102.5307 -12.13611,102.6029" stroke="#000000" stroke-width="0.24" fill="none" />
  <path class="curves" stroke-dasharray="5 5" d="M347.3018,3.050433 C346.07,16.40726 333.0552,16.42035 323.598,21.902 C314.1407,27.38365 308.241,38.33386 303.5482,45.47812 C298.8553,52.62239 295.3692,55.96072 292.927,63.55974 C290.4849,71.15876 289.0866,83.01848 284.007,92.43349 C278.9274,101.8485 270.1664,108.8188 260.1406,111.6556 C250.1147,114.4924 238.8239,113.1957 227.9865,111.3382 C217.149,109.4808 206.7647,107.0626 196.9725,102.9266 C187.1804,98.79049 177.9803,92.93652 169.3733,86.51545 C160.7663,80.09438 152.7524,73.10621 143.4287,67.40696 C134.1049,61.7077 123.4713,57.29736 114.8408,52.60081 C106.2103,47.90425 99.58287,42.92149 100.3173,34.02071 C101.0517,25.11994 109.1479,12.30117 101.5633,3.050196" stroke="#000000" stroke-width="0.24" fill="none" />
  <path class="curves" stroke-dasharray="5 5" d="M347.168,0.8060089 C345.9362,14.16283 332.9214,14.17593 323.4641,19.65758 C314.0069,25.13923 308.1072,36.08943 303.4143,43.2337 C298.7214,50.37796 295.2354,53.71629 292.7932,61.31532 C290.351,68.91434 288.9528,80.77406 283.8732,90.18907 C278.7935,99.60409 270.0326,106.5744 260.0067,109.4112 C249.9809,112.248 238.6901,110.9512 227.8526,109.0938 C217.0151,107.2364 206.6309,104.8182 196.8387,100.6821 C187.0466,96.54607 177.8465,90.69209 169.2395,84.27102 C160.6325,77.84995 152.6186,70.86179 143.2949,65.16254 C133.9711,59.46328 123.3375,55.05294 114.707,50.35638 C106.0764,45.65983 99.44905,40.67706 100.1835,31.77629 C100.9179,22.87552 109.0141,10.05674 101.4295,0.8057725" stroke="#000000" stroke-width="0.24" fill="none" />
</svg>